<svg xmlns="http://www.w3.org/2000/svg" xmlns:xlink="http://www.w3.org/1999/xlink"><defs><style>.sprite-symbol-usage {display: none;}
.sprite-symbol-usage:target {display: inline;}</style></defs><svg viewBox="0 0 24 24" id="AddCircleOutline" class="icon-sprite"><path fill="#158481" d="M12 7c-.55 0-1 .45-1 1v3H8c-.55 0-1 .45-1 1s.45 1 1 1h3v3c0 .55.45 1 1 1s1-.45 1-1v-3h3c.55 0 1-.45 1-1s-.45-1-1-1h-3V8c0-.55-.45-1-1-1Zm0-5C6.48 2 2 6.48 2 12s4.48 10 10 10 10-4.48 10-10S17.52 2 12 2Zm0 18c-4.41 0-8-3.59-8-8s3.59-8 8-8 8 3.59 8 8-3.59 8-8 8Z" /></svg><svg viewBox="0 0 24 24" id="AddRounded" class="icon-sprite"><path fill="currentColor" d="M18 13h-5v5c0 .55-.45 1-1 1s-1-.45-1-1v-5H6c-.55 0-1-.45-1-1s.45-1 1-1h5V6c0-.55.45-1 1-1s1 .45 1 1v5h5c.55 0 1 .45 1 1s-.45 1-1 1Z" /></svg><svg fill="none" viewBox="0 0 24 24" id="AutoFix" class="icon-sprite"><path fill="currentColor" d="m20.451 6 .49-1.06 1.06-.49a.5.5 0 0 0 0-.91l-1.06-.49-.49-1.05a.5.5 0 0 0-.91 0l-.49 1.06-1.05.49a.5.5 0 0 0 0 .91l1.06.49.49 1.05c.17.39.73.39.9 0Zm-11.5 0 .49-1.06 1.06-.49a.5.5 0 0 0 0-.91l-1.06-.48L8.951 2a.492.492 0 0 0-.9 0l-.49 1.06-1.06.49a.5.5 0 0 0 0 .91l1.06.49.49 1.05c.17.39.73.39.9 0Zm10.601 7.5-.49 1.06-1.06.49a.5.5 0 0 0 0 .91l1.06.49.49 1.06a.5.5 0 0 0 .91 0l.49-1.06 1.05-.5a.5.5 0 0 0 0-.91l-1.06-.49-.49-1.06c-.17-.38-.73-.38-.9.01ZM17.71 9.12l-2.83-2.83a.996.996 0 0 0-1.41 0L2.29 17.46a.996.996 0 0 0 0 1.41l2.83 2.83c.39.39 1.02.39 1.41 0L17.7 10.53c.4-.38.4-1.02.01-1.41Zm-3.5 2.09L12.8 9.8l1.38-1.38 1.41 1.41-1.38 1.38Z" /></svg><svg viewBox="0 0 24 24" id="Building" class="icon-sprite"><path d="M0 23.497c0 1.501.85 2.43 2.247 2.43h14.786c1.39 0 2.24-.929 2.24-2.43V3.107c0-1.5-.85-2.43-2.24-2.43H2.247C.849.677 0 1.607 0 3.107v20.39Zm2.275-.457V3.566c0-.418.198-.616.614-.616h13.502c.408 0 .606.198.606.616V23.04c0 .407-.198.614-.607.614H2.89c-.417 0-.615-.207-.615-.614Zm3.18 1.703h1.777v-3.888c0-.236.127-.363.363-.363h4.085c.243 0 .362.127.362.363v3.888h1.778v-4.489c0-.995-.469-1.491-1.417-1.491H6.87c-.948 0-1.416.496-1.416 1.491v4.49Zm.343-16.73h2.239c.275 0 .47-.182.47-.47V5.37a.45.45 0 0 0-.47-.472H5.798c-.275 0-.448.193-.448.472v2.175c0 .287.173.47.448.47Zm5.44 0h2.229c.274 0 .467-.182.467-.47V5.37a.45.45 0 0 0-.467-.472h-2.23c-.284 0-.46.193-.46.472v2.175c0 .287.176.47.46.47Zm-5.44 4.496h2.239c.275 0 .47-.183.47-.47V9.862a.45.45 0 0 0-.47-.47H5.798c-.275 0-.448.193-.448.47v2.177c0 .287.173.47.448.47Zm5.44 0h2.229c.274 0 .467-.183.467-.47V9.862a.449.449 0 0 0-.467-.47h-2.23c-.284 0-.46.193-.46.47v2.177c0 .287.176.47.46.47Zm-5.44 4.495h2.239c.275 0 .47-.195.47-.472v-2.175a.447.447 0 0 0-.47-.472H5.798c-.275 0-.448.186-.448.472v2.175c0 .277.173.472.448.472Zm5.44 0h2.229a.45.45 0 0 0 .467-.472v-2.175c0-.286-.193-.472-.467-.472h-2.23c-.284 0-.46.186-.46.472v2.175c0 .277.176.472.46.472Z" /></svg><svg viewBox="0 0 24 24" id="Camera" class="icon-sprite"><path d="M17.21.675c.13-.724.548-.727 1.18-.617 2.344.401 4.693.768 7.048 1.1.626.09 1.029.273.934.993-.047.353.06.622.46.68.45.067.896.133 1.198-.347.173-.275.061-.79.591-.764.533.029 1.081.003 1.577.266.215.113.313.29.319.541.009.258-.127.53.119.84 2.429.33 4.914.68 7.402 1.005 3.25.422 6.506.822 9.756 1.247.504.066 1.058.191 1.38-.254.428-.593.916-.548 1.53-.453 2.04.314 4.084.6 6.132.86.519.067.919.146 1.122.73.157.458.618.597 1.098.643.847.081 1.69.229 2.54.284.595.037 1.015.237 1.303.776.59 1.106 1.22 2.194 1.82 3.297.31.582.336 1.19.208 1.836-.707 3.604-1.368 7.22-2.09 10.824-1.304 6.506-2.638 13.005-3.962 19.504-.088.438-.163.884-.29 1.312-.256.866-.708 1.161-1.61.978-1.893-.379-3.778-.79-5.662-1.21-12.922-2.889-25.84-5.781-38.73-8.815-2.157-.507-2.172-.495-3.494-2.345-1.661-2.322-1.661-1.792-1.16-4.768l1.276-7.606c.853-5.07 1.718-10.135 2.661-15.19.229-1.234.351-2.487.703-3.697.385-1.329.617-1.491 2.02-1.314a72.23 72.23 0 0 1 1.734.24c.472.069.797-.079.887-.576Zm37.802 40.036c-.13.066-.269.101-.345.191-.124.147-.098.344.003.492a14.422 14.422 0 0 0 1.998 2.304c.194.183.472.296.725.088.307-.253.22-.562.025-.829-.55-.755-1.168-1.45-1.93-2.003-.139-.101-.307-.159-.476-.243Zm-19.592-2.93c-.792-.038-1.09.09-1.183.431-.105.377.174.712.785.915.3.093.605.168.914.226 1.27.263 2.545.518 3.818.776.174.034.351.075.528.084.281.011.562-.041.678-.327.154-.374-.122-.57-.386-.75a1.097 1.097 0 0 0-.237-.125c-1.659-.564-3.369-.912-4.917-1.23ZM18.242 3.393c-.838-.093-.887-.043-1.052.805-.122.614-.203 1.236-.31 1.856-.308 1.809.09 3.372 1.53 4.612 1.047.9 1.476 2.122 1.603 3.45.125 1.297.137 2.603-.052 3.895a442.282 442.282 0 0 1-1.183 7.57c-.322 1.945-.684 3.882-1.026 5.825-.093.507.113.77.614.851.267.043.522.133.786.191 8.231 1.853 16.462 3.706 24.693 5.553 2.847.64 5.699 1.251 8.544 1.896.542.122.878.044.956-.561.023-.177.09-.345.128-.522l5.433-25.786c.212-1.008.432-2.015.62-3.028.122-.663.038-.768-.606-.93-.217-.055-.44-.075-.664-.107-2-.289-3.998-.579-5.998-.865-9.82-1.41-19.628-2.904-29.473-4.14-1.513-.192-3.027-.395-4.543-.565Zm11.576 33.456-.217.008c-.194.012-.319.171-.36.348a.43.43 0 0 0 .186.466c.423.278.916.31 1.403.388l.259-.054.127-.036c.171-.061.31-.177.336-.368.027-.205-.122-.35-.273-.422a3.36 3.36 0 0 0-1.678-.322Zm28.596-4.664c-.386-.029-.555.257-.61.581-.243 1.445-.473 2.893-.693 4.248.023.414.058.738.47.778.258.027.426-.159.473-.382.298-1.479.594-2.958.858-4.444.066-.359-.021-.744-.498-.781ZM14 33.542c-.188-.008-.356.067-.42.264-.087.264.061.44.281.524.336.127.68.23 1.03.307 2.76.614 5.52 1.222 8.28 1.824.394.084.794.139 1.258.217.229-.067.623-.006.647-.44.017-.316-.288-.429-.54-.516-.212-.072-.435-.107-.655-.153-3.07-.651-6.144-1.303-9.217-1.948a3.987 3.987 0 0 0-.664-.079Zm20.55-22.515c1.061-.405 2.198-.431 3.328-.387 2.954.115 5.74.709 8.324 2.3 4.633 2.861 6.175 7.948 4.291 12.878-1.752 4.58-5.263 7.163-10.06 7.945-3.027.491-5.944.002-8.53-1.7-4.03-2.652-5.978-6.419-5.34-11.245.64-4.831 3.45-8.059 7.987-9.791ZM15.085 3.089c-.267 0-.354.235-.374.472-.177 2.107-.722 4.149-1.16 6.207-1.285 6.054-2.34 12.148-3.505 18.222-.11.572-.189 1.149-.299 1.722-.11.573.133.799.693.889 1.108.174 2.204.426 3.305.634.786.148.846.113.966-.657.24-1.549.475-3.101.69-4.655.313-2.267 1.073-4.441 1.333-6.723.189-1.645.458-3.283.693-4.925.087-.963-.313-1.748-.875-2.48-.995-1.294-1.496-2.71-1.332-4.384.125-1.245.062-2.51.25-3.755.044-.287-.029-.567-.385-.567Zm28.942 11.109c-2.336-1.505-5.004-1.994-7.735-1.847-2.98.159-5.065 1.929-6.653 4.279-2.444 3.618-1.979 8.37 1.067 11.504 1.977 2.033 4.435 2.979 7.288 3.109 3.14-.043 5.833-1.195 7.883-3.65 3.586-4.293 2.751-10.427-1.85-13.395Zm18.564-2.479c-.383-.046-.586.203-.679.524-.11.388-.176.788-.263 1.182-.998 4.467-1.493 9.023-2.436 13.502a9.21 9.21 0 0 0-.168 1.468c-.012.229.148.42.412.452a.406.406 0 0 0 .431-.258c.146-.423.25-.86.34-1.298.873-4.307 1.577-8.647 2.615-12.92.139-.567.229-1.146.324-1.639-.008-.17-.005-.263-.02-.35-.055-.33-.179-.616-.556-.663Zm-29.864 6.286c.138-.498.393-.66.86-.6.844.107 1.696.171 2.528.336 2.152.423 4.291.892 6.437 1.346.175.037.35.081.521.133.757.232.867.365.733 1.15-.193 1.146-.44 2.282-.66 3.422-.163.834-.302 1.671-.479 2.501-.162.759-.229.796-1.266.762-1.668-.258-3.616-.55-5.558-.866-.881-.142-1.76-.324-2.636-.504-.35-.069-.707-.145-1.035-.278-.681-.275-.841-.509-.721-1.236.336-2.073.704-4.14 1.276-6.166Zm3.554 1.32c-.363-.076-.615.055-.775.367-.49.959-.93 1.931-.95 3.089.02.095.029.196.035.3l.01.21c.022.458.075.92.737 1.086 1.647.411 3.3.796 4.996.967.403.04.719-.024.82-.47.287-1.259.577-2.518.844-3.78.073-.354-.099-.62-.467-.695-1.751-.362-3.502-.712-5.25-1.074Zm-31.541.191c.168.009.305.009.435.026.4.055.661.292.736.672a.724.724 0 0 1-.382.79 7.682 7.682 0 0 1-3.166.921c-.392.023-.687-.197-.8-.579-.131-.443.055-.797.426-1.025.852-.525 1.801-.735 2.751-.805Zm35.675-4.701c.035-.4.568-.528 1.281-.27a9.802 9.802 0 0 1 4.068 2.779c.238.27.452.562.452.95.012.417-.38.669-.733.443-.224-.139-.406-.348-.588-.542-1.024-1.094-2.181-1.995-3.62-2.495-.42-.145-.91-.278-.86-.865Zm10.179-3.903c1.572-.009 3.122.162 4.592.758.432.174.67.571.772 1.037.1.484.122.979.06 1.467 0 .356.041.719-.008 1.069-.093.654-.496 1.025-1.038 1.013-.554-.009-.922-.391-.968-1.066-.032-.486-.024-.98 0-1.47.023-.538-.22-.828-.74-.938-.612-.13-1.22-.273-1.827-.423-.344-.087-.695-.161-1.02-.301-.255-.11-.397-.354-.363-.654.035-.319.259-.492.54-.492ZM.017 13.862c.108-.568.557-.849 1.496-.773 1.792.141 3.522.593 5.242 1.088.128.04.25.095.365.165.328.191.555.455.505.866-.058.475-.398.683-.818.756-.261.046-.533.008-1.115.008-1.285-.171-2.88-.367-4.44-.787-.043-.012-.087-.021-.13-.035-.844-.29-1.212-.721-1.105-1.288Zm36.2.127c.38-.414 1.397-.527 1.87-.211.33.223.316.669-.032.883-.252.156-.499.202-1.18.197-.078-.012-.31-.015-.513-.09-.316-.113-.377-.524-.145-.779ZM3.015 8.277c-.162-.648.351-1.262.974-1.036C5.416 7.76 6.52 8.73 7.376 9.976c.069.102.06.256.078.336-.009.498-.304.805-.754.843-.377.032-.704-.116-1.012-.308-.765-.474-1.478-1.018-2.102-1.67-.249-.263-.478-.538-.571-.9Zm27.27-.855c.736-.02 1.333.484 1.383 1.17.055.713-.458 1.231-1.247 1.26h.001c-.769.026-1.352-.452-1.39-1.14-.037-.687.528-1.266 1.253-1.29ZM19.758 6.094c1.543.194 3.186.408 4.833.605.666.081 1.339.119 2.006.194.78.087 1.256.548 1.218 1.158-.032.68-.664 1.202-1.441 1.037-2.424-.516-4.894-.596-7.344-.866-.492-.055-.864-.258-1.038-.724-.153-.411-.06-.787.273-1.097.206-.191.432-.31.719-.307Z" /></svg><svg fill="none" viewBox="0 0 24 24" id="EditRounded" class="icon-sprite"><path fill="currentColor" d="M3 17.46v3.04c0 .28.22.5.5.5h3.04c.13 0 .26-.05.35-.15L17.81 9.94l-3.75-3.75L3.15 17.1c-.1.1-.15.22-.15.36ZM20.71 5.63l-2.34-2.34a.996.996 0 0 0-1.41 0l-1.83 1.83 3.75 3.75 1.83-1.83a.996.996 0 0 0 0-1.41Z" /></svg><svg viewBox="0 0 24 24" id="MapMarker" class="icon-sprite"><path d="M10.5.917A10.2 10.2 0 0 0 .292 11.125c0 2.537.729 4.915 2.056 7.058 1.385 2.246 3.208 4.171 4.608 6.417.685 1.094 1.181 2.114 1.706 3.296.38.802.686 2.187 1.838 2.187 1.152 0 1.458-1.385 1.823-2.187.54-1.181 1.02-2.202 1.706-3.296 1.4-2.231 3.223-4.156 4.608-6.417 1.342-2.143 2.071-4.52 2.071-7.058A10.2 10.2 0 0 0 10.5.917Zm0 14.218a3.647 3.647 0 0 1-3.646-3.646A3.647 3.647 0 0 1 10.5 7.845a3.647 3.647 0 0 1 3.646 3.645 3.647 3.647 0 0 1-3.646 3.646Z" /></svg><svg viewBox="0 0 24 24" id="RemoveCircleOutline" class="icon-sprite"><path fill="#158481" d="M7 12c0 .55.45 1 1 1h8c.55 0 1-.45 1-1s-.45-1-1-1H8c-.55 0-1 .45-1 1Zm5-10C6.48 2 2 6.48 2 12s4.48 10 10 10 10-4.48 10-10S17.52 2 12 2Zm0 18c-4.41 0-8-3.59-8-8s3.59-8 8-8 8 3.59 8 8-3.59 8-8 8Z" /></svg><svg fill="none" viewBox="0 0 24 24" id="SearchList" class="icon-sprite"><path fill="currentColor" d="M6 9H3c-.55 0-1-.45-1-1s.45-1 1-1h3c.55 0 1 .45 1 1s-.45 1-1 1Zm0 3H3c-.55 0-1 .45-1 1s.45 1 1 1h3c.55 0 1-.45 1-1s-.45-1-1-1Zm13.88 6.29-3.12-3.12c-.86.56-1.89.88-3 .82-2.37-.11-4.4-1.96-4.72-4.31a5.013 5.013 0 0 1 5.83-5.61c1.95.33 3.57 1.85 4 3.78.33 1.46.01 2.82-.7 3.9l3.13 3.13c.39.39.39 1.02 0 1.41-.39.39-1.03.39-1.42 0ZM17 11c0-1.65-1.35-3-3-3s-3 1.35-3 3 1.35 3 3 3 3-1.35 3-3ZM3 19h8c.55 0 1-.45 1-1s-.45-1-1-1H3c-.55 0-1 .45-1 1s.45 1 1 1Z" /></svg></svg>