<svg viewBox="0 0 24 24"><path d="M0 23.497c0 1.501.85 2.43 2.247 2.43h14.786c1.39 0 2.24-.929 2.24-2.43V3.107c0-1.5-.85-2.43-2.24-2.43H2.247C.849.677 0 1.607 0 3.107v20.39Zm2.275-.457V3.566c0-.418.198-.616.614-.616h13.502c.408 0 .606.198.606.616V23.04c0 .407-.198.614-.607.614H2.89c-.417 0-.615-.207-.615-.614Zm3.18 1.703h1.777v-3.888c0-.236.127-.363.363-.363h4.085c.243 0 .362.127.362.363v3.888h1.778v-4.489c0-.995-.469-1.491-1.417-1.491H6.87c-.948 0-1.416.496-1.416 1.491v4.49Zm.343-16.73h2.239c.275 0 .47-.182.47-.47V5.37a.45.45 0 0 0-.47-.472H5.798c-.275 0-.448.193-.448.472v2.175c0 .287.173.47.448.47Zm5.44 0h2.229c.274 0 .467-.182.467-.47V5.37a.45.45 0 0 0-.467-.472h-2.23c-.284 0-.46.193-.46.472v2.175c0 .287.176.47.46.47Zm-5.44 4.496h2.239c.275 0 .47-.183.47-.47V9.862a.45.45 0 0 0-.47-.47H5.798c-.275 0-.448.193-.448.47v2.177c0 .287.173.47.448.47Zm5.44 0h2.229c.274 0 .467-.183.467-.47V9.862a.449.449 0 0 0-.467-.47h-2.23c-.284 0-.46.193-.46.47v2.177c0 .287.176.47.46.47Zm-5.44 4.495h2.239c.275 0 .47-.195.47-.472v-2.175a.447.447 0 0 0-.47-.472H5.798c-.275 0-.448.186-.448.472v2.175c0 .277.173.472.448.472Zm5.44 0h2.229a.45.45 0 0 0 .467-.472v-2.175c0-.286-.193-.472-.467-.472h-2.23c-.284 0-.46.186-.46.472v2.175c0 .277.176.472.46.472Z"/></svg>